<?xml version="1.0" standalone="no"?>
<!DOCTYPE svg PUBLIC "-//W3C//DTD SVG 20010904//EN"
 "http://www.w3.org/TR/2001/REC-SVG-20010904/DTD/svg10.dtd">
<svg version="1.0" xmlns="http://www.w3.org/2000/svg"
 width="200.000000pt" height="200.000000pt" viewBox="0 0 200.000000 200.000000"
 preserveAspectRatio="xMidYMid meet">
<metadata>
Created by potrace 1.11, written by Peter Selinger 2001-2013
</metadata>
<g transform="translate(0.000000,200.000000) scale(0.100000,-0.100000)"
fill="#000000" stroke="none">
<path d="M550 1580 c0 -55 27 -737 33 -820 l2 -35 23 37 c21 33 23 45 16 106
-6 65 -5 70 17 86 17 12 46 16 110 16 73 0 95 4 145 27 79 37 139 37 221 -1
58 -27 68 -28 141 -22 131 12 155 -10 129 -122 -14 -61 -14 -62 9 -77 13 -8
27 -16 30 -18 9 -3 11 38 25 475 6 207 9 383 6 392 -6 14 -54 16 -457 16
l-450 0 0 -60z m71 -30 c21 -12 25 -36 7 -43 -17 -5 -58 22 -58 39 0 17 24 18
51 4z m819 -4 c0 -17 -41 -44 -57 -39 -19 7 -16 30 5 42 25 15 52 13 52 -3z
m-378 -121 c15 -49 28 -91 28 -92 0 -2 -11 -3 -24 -3 -17 0 -26 7 -30 25 -5
20 -13 25 -35 25 -23 0 -30 -5 -33 -22 -2 -15 -11 -24 -25 -26 -13 -2 -23 -1
-23 3 0 3 12 47 27 96 27 89 27 90 57 87 29 -3 31 -7 58 -93z m-234 -220 c26
-28 32 -43 32 -79 0 -82 -79 -141 -155 -116 -108 36 -115 180 -11 226 46 21
95 9 134 -31z m519 20 c59 -39 66 -134 14 -186 -97 -97 -257 19 -194 141 33
65 117 86 180 45z"/>
<path d="M996 1458 c-15 -45 -15 -48 4 -48 21 0 24 12 10 45 -7 18 -8 18 -14
3z"/>
<path d="M707 1152 c-20 -22 -22 -63 -5 -80 39 -39 112 12 87 60 -22 42 -55
50 -82 20z m13 -12 c0 -5 -5 -10 -11 -10 -5 0 -7 5 -4 10 3 6 8 10 11 10 2 0
4 -4 4 -10z"/>
<path d="M1242 1154 c-41 -29 -19 -94 33 -94 51 0 71 54 35 90 -24 24 -38 25
-68 4z"/>
<path d="M950 932 c0 -15 36 -42 57 -42 11 0 27 8 36 18 22 25 22 39 0 20 -32
-27 -40 -28 -67 -7 -14 11 -26 16 -26 11z"/>
<path d="M908 744 c-9 -19 -9 -27 0 -33 8 -5 11 -35 9 -91 l-2 -85 33 -3 c18
-2 39 2 47 8 8 6 16 7 19 2 6 -10 41 -18 123 -28 38 -5 46 -2 73 24 64 65 17
172 -75 172 -14 0 -25 6 -25 13 0 6 -13 19 -28 28 -27 15 -31 15 -66 -3 -38
-19 -38 -19 -60 1 -29 27 -34 26 -48 -5z m116 -78 c-8 -22 -27 -20 -42 4 -10
17 -10 20 3 20 8 0 15 5 15 11 0 6 7 4 15 -5 8 -8 12 -22 9 -30z m184 -2 c12
-14 22 -38 22 -55 0 -42 -48 -89 -90 -89 -37 0 -90 47 -90 79 0 88 101 130
158 65z"/>
<path d="M1092 657 c-44 -46 -14 -117 48 -117 63 0 94 77 48 120 -29 27 -69
25 -96 -3z m85 -34 c14 -11 14 -14 -1 -28 -9 -9 -16 -21 -16 -27 0 -7 -5 -6
-15 2 -8 6 -23 9 -35 5 -20 -6 -21 -5 -10 15 9 16 9 25 -1 36 -9 11 -7 14 14
14 14 0 29 5 33 12 6 9 9 8 12 -2 2 -8 11 -20 19 -27z"/>
<path d="M960 461 c0 -5 -19 -7 -42 -4 -29 4 -39 3 -34 -5 10 -16 246 -17 246
-1 0 7 -15 10 -40 7 -22 -2 -40 0 -40 4 0 5 -20 8 -45 8 -25 0 -45 -4 -45 -9z"/>
<path d="M558 323 c-10 -19 0 -78 14 -81 11 -2 14 7 13 39 -1 38 -17 63 -27
42z"/>
<path d="M606 321 c-4 -7 -5 -15 -2 -18 9 -9 19 4 14 18 -4 11 -6 11 -12 0z"/>
<path d="M767 315 c-19 -18 -23 -60 -7 -70 6 -4 10 5 10 20 0 15 4 24 10 20 6
-3 10 -15 10 -26 0 -11 5 -17 10 -14 14 9 12 48 -3 69 -13 17 -14 17 -30 1z"/>
<path d="M867 318 c-25 -13 -21 -38 6 -39 22 0 22 0 -2 -10 -17 -7 -21 -13
-14 -20 17 -17 48 -6 51 19 3 17 -2 22 -17 22 -28 0 -27 18 2 22 17 2 18 5 6
10 -8 3 -23 2 -32 -4z"/>
<path d="M1018 319 c-18 -10 -23 -35 -12 -63 3 -9 10 -14 15 -11 4 3 6 12 3
20 -9 23 39 23 51 0 14 -27 41 -31 48 -5 4 15 0 20 -14 20 -26 0 -24 16 4 24
18 5 19 8 8 15 -10 6 -22 6 -34 -1 -13 -7 -22 -7 -30 1 -13 13 -17 13 -39 0z"/>
<path d="M1153 323 c-7 -2 -13 -22 -13 -42 0 -37 6 -41 49 -32 2 1 -2 7 -8 15
-9 10 -8 15 4 20 20 7 19 32 -1 40 -9 3 -16 6 -17 5 -1 0 -8 -3 -14 -6z"/>
<path d="M1251 318 c-1 -19 -21 -26 -21 -8 0 6 -4 10 -10 10 -5 0 -10 -18 -10
-40 0 -22 5 -40 10 -40 6 0 10 9 10 20 0 11 5 20 10 20 6 0 10 -10 10 -22 0
-16 3 -19 11 -11 8 8 8 22 1 50 -5 21 -10 30 -11 21z"/>
<path d="M1291 321 c-7 -5 -11 -23 -9 -42 2 -26 8 -34 22 -34 11 0 20 8 22 18
1 9 -4 17 -12 17 -8 0 -14 5 -14 10 0 6 7 10 15 10 8 0 15 4 15 9 0 13 -25 20
-39 12z"/>
<path d="M1353 323 c-15 -6 -18 -83 -3 -83 6 0 10 5 10 11 0 8 6 7 17 -2 15
-12 16 -12 10 4 -4 10 -1 27 6 38 10 16 9 21 -3 29 -16 11 -19 11 -37 3z"/>
<path d="M1422 318 c-28 -28 -2 -88 33 -74 21 8 20 72 -1 80 -20 8 -18 8 -32
-6z m28 -39 c0 -11 -4 -17 -10 -14 -5 3 -10 13 -10 21 0 8 5 14 10 14 6 0 10
-9 10 -21z"/>
<path d="M630 286 c0 -42 19 -59 21 -19 2 23 2 24 6 6 5 -27 20 -30 26 -5 4
16 5 16 6 0 2 -28 21 -21 21 7 0 26 -4 29 -52 39 -26 6 -28 4 -28 -28z"/>
<path d="M930 286 c0 -35 17 -50 45 -40 17 7 21 74 5 74 -5 0 -10 -11 -10 -25
0 -14 -4 -25 -10 -25 -5 0 -10 11 -10 25 0 14 -4 25 -10 25 -5 0 -10 -15 -10
-34z"/>
</g>
</svg>
